<mxfile host="drawio-plugin" modified="2021-05-18T19:11:43.661Z" agent="5.0 (Windows NT 6.2; Win64; x64) AppleWebKit/537.36 (KHTML, like Gecko) Chrome/87.0.4280.141 Safari/537.36" version="14.6.6" etag="9MZMrZMHl5Ldos2ub6kA" type="embed"><diagram id="sT0B_fg7LNwbXut7dq0-" name="Page-1"><mxGraphModel dx="1064" dy="359" grid="1" gridSize="10" guides="1" tooltips="1" connect="1" arrows="1" fold="1" page="1" pageScale="1" pageWidth="850" pageHeight="1100" math="0" shadow="0"><root><mxCell id="0"/><mxCell id="1" parent="0"/><mxCell id="11" value="Extends" style="endArrow=block;endSize=16;endFill=0;html=1;exitX=0.5;exitY=0;exitDx=0;exitDy=0;entryX=0.503;entryY=1;entryDx=0;entryDy=0;entryPerimeter=0;" edge="1" parent="1" target="32"><mxGeometry width="160" relative="1" as="geometry"><mxPoint x="305" y="250" as="sourcePoint"/><mxPoint x="305" y="202" as="targetPoint"/></mxGeometry></mxCell><mxCell id="16" value="Product" style="swimlane;fontStyle=1;align=center;verticalAlign=top;childLayout=stackLayout;horizontal=1;startSize=26;horizontalStack=0;resizeParent=1;resizeParentMax=0;resizeLast=0;collapsible=1;marginBottom=0;" vertex="1" parent="1"><mxGeometry x="450" y="250" width="190" height="130" as="geometry"/></mxCell><mxCell id="18" value="" style="line;strokeWidth=1;fillColor=none;align=left;verticalAlign=middle;spacingTop=-1;spacingLeft=3;spacingRight=3;rotatable=0;labelPosition=right;points=[];portConstraint=eastwest;" vertex="1" parent="16"><mxGeometry y="26" width="190" height="8" as="geometry"/></mxCell><mxCell id="19" value="+ add()&#10;+ list_parts()" style="text;strokeColor=none;fillColor=none;align=left;verticalAlign=top;spacingLeft=4;spacingRight=4;overflow=hidden;rotatable=0;points=[[0,0.5],[1,0.5]];portConstraint=eastwest;" vertex="1" parent="16"><mxGeometry y="34" width="190" height="96" as="geometry"/></mxCell><mxCell id="22" value="Director" style="swimlane;fontStyle=1;align=center;verticalAlign=top;childLayout=stackLayout;horizontal=1;startSize=30;horizontalStack=0;resizeParent=1;resizeParentMax=0;resizeLast=0;collapsible=1;marginBottom=0;" vertex="1" parent="1"><mxGeometry x="450" y="60" width="190" height="120" as="geometry"><mxRectangle x="240" y="10" width="190" height="30" as="alternateBounds"/></mxGeometry></mxCell><mxCell id="23" value="- builder: Builder" style="text;strokeColor=none;fillColor=none;align=left;verticalAlign=top;spacingLeft=4;spacingRight=4;overflow=hidden;rotatable=0;points=[[0,0.5],[1,0.5]];portConstraint=eastwest;" vertex="1" parent="22"><mxGeometry y="30" width="190" height="26" as="geometry"/></mxCell><mxCell id="24" value="" style="line;strokeWidth=1;fillColor=none;align=left;verticalAlign=middle;spacingTop=-1;spacingLeft=3;spacingRight=3;rotatable=0;labelPosition=right;points=[];portConstraint=eastwest;" vertex="1" parent="22"><mxGeometry y="56" width="190" height="8" as="geometry"/></mxCell><mxCell id="25" value="+ build_minimal_viable_product()&#10;+ build_full_featured_product()&#10; " style="text;strokeColor=none;fillColor=none;align=left;verticalAlign=top;spacingLeft=4;spacingRight=4;overflow=hidden;rotatable=0;points=[[0,0.5],[1,0.5]];portConstraint=eastwest;" vertex="1" parent="22"><mxGeometry y="64" width="190" height="56" as="geometry"/></mxCell><mxCell id="27" value="" style="endArrow=open;html=1;endSize=12;startArrow=diamondThin;startSize=14;startFill=1;edgeStyle=orthogonalEdgeStyle;align=left;verticalAlign=bottom;exitX=0;exitY=0.5;exitDx=0;exitDy=0;" edge="1" parent="1" source="22" target="29"><mxGeometry x="-1" y="3" relative="1" as="geometry"><mxPoint x="441" y="120" as="sourcePoint"/><mxPoint x="400" y="144" as="targetPoint"/><Array as="points"/></mxGeometry></mxCell><mxCell id="29" value="Builder" style="swimlane;fontStyle=1;align=center;verticalAlign=top;childLayout=stackLayout;horizontal=1;startSize=26;horizontalStack=0;resizeParent=1;resizeParentMax=0;resizeLast=0;collapsible=1;marginBottom=0;" vertex="1" parent="1"><mxGeometry x="210" y="60" width="190" height="120" as="geometry"><mxRectangle x="10" y="10" width="190" height="30" as="alternateBounds"/></mxGeometry></mxCell><mxCell id="30" value="- product: None" style="text;strokeColor=none;fillColor=none;align=left;verticalAlign=top;spacingLeft=4;spacingRight=4;overflow=hidden;rotatable=0;points=[[0,0.5],[1,0.5]];portConstraint=eastwest;" vertex="1" parent="29"><mxGeometry y="26" width="190" height="26" as="geometry"/></mxCell><mxCell id="31" value="" style="line;strokeWidth=1;fillColor=none;align=left;verticalAlign=middle;spacingTop=-1;spacingLeft=3;spacingRight=3;rotatable=0;labelPosition=right;points=[];portConstraint=eastwest;" vertex="1" parent="29"><mxGeometry y="52" width="190" height="8" as="geometry"/></mxCell><mxCell id="32" value="+ produce_part_a()&#10;+ produce_part_b()&#10;+ produce_part_c()" style="text;strokeColor=none;fillColor=none;align=left;verticalAlign=top;spacingLeft=4;spacingRight=4;overflow=hidden;rotatable=0;points=[[0,0.5],[1,0.5]];portConstraint=eastwest;" vertex="1" parent="29"><mxGeometry y="60" width="190" height="60" as="geometry"/></mxCell><mxCell id="33" value="ConcreteBuilder" style="swimlane;fontStyle=1;align=center;verticalAlign=top;childLayout=stackLayout;horizontal=1;startSize=26;horizontalStack=0;resizeParent=1;resizeParentMax=0;resizeLast=0;collapsible=1;marginBottom=0;" vertex="1" parent="1"><mxGeometry x="210" y="250" width="190" height="130" as="geometry"/></mxCell><mxCell id="34" value="- product: Product" style="text;strokeColor=none;fillColor=none;align=left;verticalAlign=top;spacingLeft=4;spacingRight=4;overflow=hidden;rotatable=0;points=[[0,0.5],[1,0.5]];portConstraint=eastwest;" vertex="1" parent="33"><mxGeometry y="26" width="190" height="26" as="geometry"/></mxCell><mxCell id="35" value="" style="line;strokeWidth=1;fillColor=none;align=left;verticalAlign=middle;spacingTop=-1;spacingLeft=3;spacingRight=3;rotatable=0;labelPosition=right;points=[];portConstraint=eastwest;" vertex="1" parent="33"><mxGeometry y="52" width="190" height="8" as="geometry"/></mxCell><mxCell id="36" value="+ reset()&#10;+ produce_part_a()&#10;+ produce_part_b()&#10;+ produce_part_c()" style="text;strokeColor=none;fillColor=none;align=left;verticalAlign=top;spacingLeft=4;spacingRight=4;overflow=hidden;rotatable=0;points=[[0,0.5],[1,0.5]];portConstraint=eastwest;" vertex="1" parent="33"><mxGeometry y="60" width="190" height="70" as="geometry"/></mxCell><mxCell id="37" value="Use" style="endArrow=open;endSize=12;dashed=1;html=1;entryX=0.003;entryY=0.375;entryDx=0;entryDy=0;entryPerimeter=0;" edge="1" parent="1" target="19"><mxGeometry x="-0.209" y="10" width="160" relative="1" as="geometry"><mxPoint x="400" y="320" as="sourcePoint"/><mxPoint x="449" y="321" as="targetPoint"/><mxPoint as="offset"/></mxGeometry></mxCell></root></mxGraphModel></diagram></mxfile>